REM DIRINDEX 1\2,1\3,1\4,1\5,1\6
REM DIRNAME folder01,folder02,folder03,folder04,folder05,folder06
TITLE ""
FILE "Disc4Track45.mp3" MP3
  TRACK 01 AUDIO
    TITLE "3:cjc030_07333"
    INDEX 01 00:00:00
  TRACK 02 AUDIO
    TITLE "0:"
    INDEX 01 00:00:72
  TRACK 03 AUDIO
    TITLE "4:cjc030_07334"
    INDEX 01 00:01:05
  TRACK 04 AUDIO
    TITLE "0:"
    INDEX 01 00:04:54
  TRACK 05 AUDIO
    TITLE "5:cjc030_07335"
    INDEX 01 00:04:62
  TRACK 06 AUDIO
    TITLE "0:"
    INDEX 01 00:05:63
  TRACK 07 AUDIO
    TITLE "6:cjc030_07336"
    INDEX 01 00:06:00
  TRACK 08 AUDIO
    TITLE "0:"
    INDEX 01 00:09:61
  TRACK 09 AUDIO
    TITLE "3:cjc030_07337"
    INDEX 01 00:10:35
  TRACK 10 AUDIO
    TITLE "0:"
    INDEX 01 00:11:25
  TRACK 11 AUDIO
    TITLE "4:cjc030_07338"
    INDEX 01 00:11:33
  TRACK 12 AUDIO
    TITLE "0:"
    INDEX 01 00:13:06
  TRACK 13 AUDIO
    TITLE "5:cjc030_07339"
    INDEX 01 00:13:14
  TRACK 14 AUDIO
    TITLE "0:"
    INDEX 01 00:14:04
  TRACK 15 AUDIO
    TITLE "6:cjc030_07340"
    INDEX 01 00:14:17
  TRACK 16 AUDIO
    TITLE "0:"
    INDEX 01 00:16:12
  TRACK 17 AUDIO
    TITLE "3:cjc030_07341"
    INDEX 01 00:16:61
  TRACK 18 AUDIO
    TITLE "0:"
    INDEX 01 00:18:01
  TRACK 19 AUDIO
    TITLE "4:cjc030_07342"
    INDEX 01 00:18:09
  TRACK 20 AUDIO
    TITLE "0:"
    INDEX 01 00:20:39
  TRACK 21 AUDIO
    TITLE "5:cjc030_07343"
    INDEX 01 00:20:47
  TRACK 22 AUDIO
    TITLE "0:"
    INDEX 01 00:21:62
  TRACK 23 AUDIO
    TITLE "6:cjc030_07344"
    INDEX 01 00:21:74
  TRACK 24 AUDIO
    TITLE "0:"
    INDEX 01 00:25:52
  TRACK 25 AUDIO
    TITLE "3:cjc030_07345"
    INDEX 01 00:26:24
  TRACK 26 AUDIO
    TITLE "0:"
    INDEX 01 00:27:34
  TRACK 27 AUDIO
    TITLE "4:cjc030_07346"
    INDEX 01 00:27:43
  TRACK 28 AUDIO
    TITLE "0:"
    INDEX 01 00:29:42
  TRACK 29 AUDIO
    TITLE "5:cjc030_07347"
    INDEX 01 00:29:52
  TRACK 30 AUDIO
    TITLE "0:"
    INDEX 01 00:30:59
  TRACK 31 AUDIO
    TITLE "3:cjc030_07348"
    INDEX 01 00:31:33
  TRACK 32 AUDIO
    TITLE "0:"
    INDEX 01 00:32:41
  TRACK 33 AUDIO
    TITLE "4:cjc030_07349"
    INDEX 01 00:32:52
  TRACK 34 AUDIO
    TITLE "0:"
    INDEX 01 00:34:73
  TRACK 35 AUDIO
    TITLE "5:cjc030_07350"
    INDEX 01 00:35:06
  TRACK 36 AUDIO
    TITLE "0:"
    INDEX 01 00:36:13
  TRACK 37 AUDIO
    TITLE "6:cjc030_07351"
    INDEX 01 00:36:27
  TRACK 38 AUDIO
    TITLE "0:"
    INDEX 01 00:42:19
  TRACK 39 AUDIO
    TITLE "3:cjc030_07352"
    INDEX 01 00:42:68
  TRACK 40 AUDIO
    TITLE "0:"
    INDEX 01 00:44:03
  TRACK 41 AUDIO
    TITLE "4:cjc030_07353"
    INDEX 01 00:44:09
  TRACK 42 AUDIO
    TITLE "0:"
    INDEX 01 00:45:10
  TRACK 43 AUDIO
    TITLE "5:cjc030_07354"
    INDEX 01 00:45:16
  TRACK 44 AUDIO
    TITLE "0:"
    INDEX 01 00:46:27
  TRACK 45 AUDIO
    TITLE "3:cjc030_07355"
    INDEX 01 00:47:05
  TRACK 46 AUDIO
    TITLE "0:"
    INDEX 01 00:48:26
  TRACK 47 AUDIO
    TITLE "4:cjc030_07356"
    INDEX 01 00:48:32
  TRACK 48 AUDIO
    TITLE "0:"
    INDEX 01 00:50:35
  TRACK 49 AUDIO
    TITLE "5:cjc030_07357"
    INDEX 01 00:50:42
  TRACK 50 AUDIO
    TITLE "0:"
    INDEX 01 00:51:60
  TRACK 51 AUDIO
    TITLE "3:cjc030_07358"
    INDEX 01 00:52:36
  TRACK 52 AUDIO
    TITLE "0:"
    INDEX 01 00:53:43
  TRACK 53 AUDIO
    TITLE "4:cjc030_07359"
    INDEX 01 00:53:51
  TRACK 54 AUDIO
    TITLE "0:"
    INDEX 01 00:55:67
  TRACK 55 AUDIO
    TITLE "5:cjc030_07360"
    INDEX 01 00:56:00
  TRACK 56 AUDIO
    TITLE "0:"
    INDEX 01 00:57:09
  TRACK 57 AUDIO
    TITLE "6:cjc030_07361"
    INDEX 01 00:57:21
  TRACK 58 AUDIO
    TITLE "0:"
    INDEX 01 01:01:40
  TRACK 59 AUDIO
    TITLE "3:cjc030_07362"
    INDEX 01 01:02:12
  TRACK 60 AUDIO
    TITLE "0:"
    INDEX 01 01:03:16
  TRACK 61 AUDIO
    TITLE "4:cjc030_07363"
    INDEX 01 01:03:26
  TRACK 62 AUDIO
    TITLE "0:"
    INDEX 01 01:04:25
  TRACK 63 AUDIO
    TITLE "5:cjc030_07364"
    INDEX 01 01:04:31
  TRACK 64 AUDIO
    TITLE "0:"
    INDEX 01 01:05:38
  TRACK 65 AUDIO
    TITLE "6:cjc030_07365"
    INDEX 01 01:05:50
  TRACK 66 AUDIO
    TITLE "0:"
    INDEX 01 01:07:27
  TRACK 67 AUDIO
    TITLE "3:cjc030_07366"
    INDEX 01 01:08:01
  TRACK 68 AUDIO
    TITLE "0:"
    INDEX 01 01:10:10
  TRACK 69 AUDIO
    TITLE "4:cjc030_07367"
    INDEX 01 01:10:18
  TRACK 70 AUDIO
    TITLE "0:"
    INDEX 01 01:12:34
  TRACK 71 AUDIO
    TITLE "5:cjc030_07368"
    INDEX 01 01:12:42
  TRACK 72 AUDIO
    TITLE "0:"
    INDEX 01 01:14:49
  TRACK 73 AUDIO
    TITLE "6:cjc030_07369"
    INDEX 01 01:14:65
  TRACK 74 AUDIO
    TITLE "0:"
    INDEX 01 01:19:58
  TRACK 75 AUDIO
    TITLE "3:cjc030_07370"
    INDEX 01 01:20:34
  TRACK 76 AUDIO
    TITLE "0:"
    INDEX 01 01:22:41
  TRACK 77 AUDIO
    TITLE "4:cjc030_07371"
    INDEX 01 01:22:52
  TRACK 78 AUDIO
    TITLE "0:"
    INDEX 01 01:24:63
  TRACK 79 AUDIO
    TITLE "5:cjc030_07372"
    INDEX 01 01:24:73
  TRACK 80 AUDIO
    TITLE "0:"
    INDEX 01 01:27:08
